# Blender 4.5.4 LTS
# www.blender.org
o Arrow
v -0.090000 -0.040000 0.000000
v 0.010000 0.000000 0.000000
v -0.010000 0.000000 0.000000
v -0.190000 -0.040000 0.000000
v 0.210000 0.000000 0.000000
v -0.090000 0.040000 0.000000
v 0.060000 0.000000 0.030000
v -0.110000 -0.040000 0.000000
v -0.110000 0.040000 0.000000
v -0.070000 0.000000 0.030000
v -0.190000 0.040000 0.000000
v -0.130000 0.000000 0.030000
v -0.160000 0.000000 0.000000
v 0.060000 0.000000 -0.030000
v -0.070000 0.000000 -0.030000
v -0.130000 0.000000 -0.030000
vn 0.1103 0.8270 0.5513
vn -0.0000 0.6000 0.8000
vn -0.3158 -0.7895 0.5263
vn -0.3158 0.7895 0.5263
vn 0.2981 -0.7454 0.5963
vn -0.6247 -0.4685 0.6247
vn 0.2981 0.7454 0.5963
vn -0.0000 -0.6000 0.8000
vn 0.1103 -0.8270 0.5513
vn -0.6247 0.4685 0.6247
vn 0.1103 0.8270 -0.5513
vn -0.0000 0.6000 -0.8000
vn -0.3158 -0.7895 -0.5263
vn -0.3158 0.7895 -0.5263
vn 0.2981 -0.7454 -0.5963
vn -0.6247 -0.4685 -0.6247
vn 0.2981 0.7454 -0.5963
vn -0.0000 -0.6000 -0.8000
vn 0.1103 -0.8270 -0.5513
vn -0.6247 0.4685 -0.6247
vt 1.000000 0.500000
vt 0.000000 1.000000
vt 0.000000 0.500000
vt 0.000000 0.000000
s 0
f 5/1/1 6/2/1 7/3/1
f 10/4/2 9/4/2 11/4/2 12/4/2
f 6/2/3 2/3/3 7/3/3
f 2/3/4 1/4/4 7/3/4
f 3/4/5 10/4/5 8/4/5
f 13/4/6 12/4/6 11/4/6
f 9/4/7 10/4/7 3/4/7
f 8/4/8 10/4/8 12/4/8 4/4/8
f 1/4/9 5/1/9 7/3/9
f 4/4/10 12/4/10 13/4/10
f 5/1/11 14/3/11 6/2/11
f 15/4/12 16/4/12 11/4/12 9/4/12
f 6/2/13 14/3/13 2/3/13
f 2/3/14 14/3/14 1/4/14
f 3/4/15 8/4/15 15/4/15
f 13/4/16 11/4/16 16/4/16
f 9/4/17 3/4/17 15/4/17
f 8/4/18 4/4/18 16/4/18 15/4/18
f 1/4/19 14/3/19 5/1/19
f 4/4/20 13/4/20 16/4/20
